<svg height="480pt" viewBox="-24 0 480 480" width="480pt" xmlns="http://www.w3.org/2000/svg"><path d="m88 320v-144c.027344-8.824219 7.175781-15.972656 16-16h272v-136c-.027344-8.824219-7.175781-15.972656-16-16h-248v80c0 8.835938-7.164062 16-16 16h-88v352c.027344 8.824219 7.175781 15.972656 16 16h336c8.824219-.027344 15.972656-7.175781 16-16v-120h-272c-8.824219-.027344-15.972656-7.175781-16-16zm0 0" fill="#9bc9ff"/><g fill="#1e81ce"><path d="m136 208h32c4.417969 0 8 3.582031 8 8s3.582031 8 8 8 8-3.582031 8-8c0-13.253906-10.746094-24-24-24h-32c-13.253906 0-24 10.746094-24 24v64c0 13.253906 10.746094 24 24 24h32c13.253906 0 24-10.746094 24-24 0-4.417969-3.582031-8-8-8s-8 3.582031-8 8-3.582031 8-8 8h-32c-4.417969 0-8-3.582031-8-8v-64c0-4.417969 3.582031-8 8-8zm0 0"/><path d="m264 240h-32c-4.417969 0-8-3.582031-8-8v-16c0-4.417969 3.582031-8 8-8h32.40625c2.046875-.003906 4.007812.820312 5.433594 2.289062 1.476562 1.523438 2.257812 3.589844 2.160156 5.710938-.042969 4.417969 3.5 8.035156 7.921875 8.078125 4.417969.046875 8.035156-3.5 8.078125-7.917969.148438-6.355468-2.269531-12.5-6.710938-17.046875-4.441406-4.546875-10.527343-7.109375-16.882812-7.113281h-32.40625c-13.253906 0-24 10.746094-24 24v16c0 13.253906 10.746094 24 24 24h32c4.417969 0 8 3.582031 8 8v16c0 4.417969-3.582031 8-8 8h-32c-4.460938-.042969-8.039062-3.691406-8-8.152344-.085938-4.339844-3.660156-7.796875-8-7.742187h-.136719c-4.421875.125-7.925781 3.78125-7.863281 8.207031.21875 13.113281 10.886719 23.640625 24 23.6875h32c13.253906 0 24-10.746094 24-24v-16c0-13.253906-10.746094-24-24-24zm0 0"/><path d="m395.078125 192.617188c-4.078125-1.703126-8.761719.222656-10.460937 4.304687l-32.617188 78.277344-32.617188-78.277344c-1.699218-4.078125-6.382812-6.007813-10.460937-4.304687-4.078125 1.699218-6.007813 6.382812-4.304687 10.460937l40 96c1.242187 2.980469 4.152343 4.921875 7.382812 4.921875s6.140625-1.941406 7.382812-4.921875l40-96c1.703126-4.078125-.222656-8.761719-4.304687-10.460937zm0 0"/><path d="m408 152h-24v-128c0-13.253906-10.746094-24-24-24h-248c-.167969 0-.3125.078125-.480469.0898438-.644531.0429682-1.285156.1640622-1.902343.3593752-.257813.066406-.507813.144531-.753907.238281-.839843.34375-1.613281.832031-2.289062 1.441406l-104 96c-.714844.683594-1.292969 1.496094-1.703125 2.398438-.117188.261718-.21875.527344-.304688.800781-.261718.71875-.417968 1.476563-.460937 2.238281 0 .167969-.105469.320313-.105469.488282v351.945312c0 13.253906 10.746094 24 24 24h336c13.253906 0 24-10.746094 24-24v-112h24c13.253906 0 24-10.746094 24-24v-144c0-13.253906-10.746094-24-24-24zm-304-125.726562v61.726562c0 4.417969-3.582031 8-8 8h-67.535156zm264 429.726562c0 4.417969-3.582031 8-8 8h-336c-4.417969 0-8-3.582031-8-8v-344h80c13.253906 0 24-10.746094 24-24v-72h240c4.417969 0 8 3.582031 8 8v128h-264c-13.253906 0-24 10.746094-24 24v144c0 13.253906 10.746094 24 24 24h264zm48-136c0 4.417969-3.582031 8-8 8h-304c-4.417969 0-8-3.582031-8-8v-144c0-4.417969 3.582031-8 8-8h304c4.417969 0 8 3.582031 8 8zm0 0"/></g></svg>