<!DOCTYPE svg PUBLIC "-//W3C//DTD SVG 1.1//EN" "http://www.w3.org/Graphics/SVG/1.1/DTD/svg11.dtd">
<svg version="1.1" xmlns="http://www.w3.org/2000/svg" xmlns:xlink="http://www.w3.org/1999/xlink"
	x="0px" y="0px" width="1024px" height="372px" viewBox="0 0 1024 372" enable-background="new 0 0 1024 372" xml:space="preserve"
	aria-labelledby="title" role="group">

	<title id="title">Inverted Classroom: Vergleich</title>

	<defs>
		<style type="text/css"><![CDATA[
			@import 'https://dbs-lin.ruhr-uni-bochum.de/lehreladen/wp-content/themes/lehreladen/assets/css/svg.min.css';
			text {
				font-family: "Fira Sans", "Trebuchet MS", Helvetica, Arial, sans-serif;
				font-weight: 500;
				font-size: 28px;
				}
			]]>
		</style>
	</defs>
	

	<g id="art" role="presentation">

		<g id="traditionell">
			<g id="bg">
				<rect y="36" fill="#036" width="491" height="336"/>
				<polygon fill="#94c11c" points="491,372 275,372 388,36 491,36"/>
				<polygon fill="#036" stroke="#036" stroke-width="6" stroke-linecap="round" stroke-linejoin="round" stroke-miterlimit="10" points=" 332.5,167 369.5,212 311,215"/>
			</g>
			<g id="teacher">
				<rect fill="#fff" x="56" y="78.5" width="196" height="96"/>
				<circle fill="#94c11c" cx="83" cy="144" r="7"/>
				<polygon fill="#94c11c" points="90,153.5 88,152.5 75.5,152.5 73,153.5 73,179.5 90,179.5"/>
				<g fill="none" stroke="#94c11c" stroke-width="8" stroke-linecap="round" stroke-linejoin="round" stroke-miterlimit="10">
					<line x1="77" y1="208.625" x2="77" y2="176"/>
					<line x1="86" y1="208.625" x2="86" y2="176"/>
					<path stroke-width="5" d="M68.25,180.813c0,0-0.33-9.21,0.625-15.438C70.313,156,75.5,155,75.5,155"/>
					<polyline stroke-width="5" points="108.438,152.438 99.438,160.563 88,155"/>
				</g>
				<rect x="110.906" y="146.656" transform="matrix(0.7074 0.7068 -0.7068 0.7074 137.8726 -35.5272)" fill="#94c11c" width="1.875" height="4.188"/>
			</g>
			<g id="audience" fill="#fff" stroke="#036" stroke-miterlimit="10">
				<circle cx="42.75" cy="248.25" r="8.5"/>
				<circle cx="65.5" cy="250" r="8"/>
				<circle cx="95" cy="248.25" r="8.5"/>
				<circle cx="122" cy="248.25" r="8.5"/>
				<circle cx="148" cy="248.25" r="8.5"/>
				<circle cx="174.25" cy="248.25" r="8.5"/>
				<circle cx="201" cy="248.25" r="8.5"/>
				<circle cx="226.5" cy="248.25" r="8.5"/>
				<circle cx="252.25" cy="248.25" r="8.5"/>
				<circle cx="57.5" cy="262" r="8"/>
				<circle cx="102.5" cy="261" r="8"/>
				<circle cx="147.5" cy="260" r="8"/>
				<circle cx="192.5" cy="260.75" r="8"/>
				<circle cx="237.75" cy="260.75" r="8"/>
				<circle cx="29.5" cy="264.5" r="11"/>
				<circle cx="80.75" cy="264.5" r="11"/>
				<circle cx="125.5" cy="264.5" r="11"/>
				<circle cx="172.5" cy="264.5" r="11"/>
				<circle cx="218.5" cy="264" r="11"/>
				<circle cx="265.75" cy="264.5" r="11"/>
				<path d="M51.5,290.25h-43V284c0-3.85,3.15-7,7-7h29c3.85,0,7,3.15,7,7 V290.25z"/>
				<path d="M103,290.25H60V284c0-3.85,3.15-7,7-7h29c3.85,0,7,3.15,7,7 V290.25z"/>
				<path d="M148,290.25h-43V284c0-3.85,3.15-7,7-7h29c3.85,0,7,3.15,7,7 V290.25z"/>
				<path d="M194.75,290.25h-43V284c0-3.85,3.15-7,7-7h29c3.85,0,7,3.15,7,7 V290.25z"/>
				<path d="M239.75,290.25h-43V284c0-3.85,3.15-7,7-7h29c3.85,0,7,3.15,7,7 V290.25z"/>
				<path d="M288.25,290.25h-43V284c0-3.85,3.149-7,7-7h29c3.85,0,7,3.15,7,7 V290.25z"/>
				<rect x="5.125" y="288" width="284.5" height="28"/>
			</g>
			<g id="learner">
				<g fill="#fff">
					<polygon points="407.918,225.537 406.453,224.573 404.902,226.924 406.593,227.545"/>
					<polygon points="396.963,238.957 396.247,241.178 396.665,241.453 398.426,239.922 399.563,238.2 397.959,237.448"/>
					<circle cx="421.001" cy="205" r="13.5"/>
					<rect x="364" y="251" width="9" height="55.25"/>
					<rect x="411.5" y="251" width="9" height="55.25"/>
					<rect x="429.625" y="280.875" width="6.25" height="25.375"/>
					<rect x="434.5" y="292.563" width="28" height="3.875"/>
					<rect x="428" y="274.313" width="33.25" height="6.875"/>
					<rect x="360" y="244" width="64.5" height="7"/>
					<rect x="367.25" y="250" width="50" height="9.5"/>
					<rect x="387.5" y="242" width="21" height="1.25"/>
					<path d="M428.5,219.5c0,0,11-3.666,15.833,6.334s10.833,38.666,2.333,44.333s-18.666-3-18.666-3 s0.667-9.833-1.5-22.5S421.5,224.5,428.5,219.5z"/>
					<path d="M465.968,265.669c0-13.792,1.129-27.324,3.267-40.522l-6.938-1.166 c-2.192,13.659-3.329,27.586-3.329,41.688c0,13.722,1.075,27.277,3.152,40.581h7.124 C467.1,293.033,465.968,279.482,465.968,265.669z"/>
				</g>
				<g  fill="none" stroke="#FFFFFF" stroke-width="14" stroke-linecap="round" stroke-linejoin="round" stroke-miterlimit="10">
					<polyline points="403.25,300.25 411.25,269 441.25,265"/>
					<path stroke-width="10" d="M401.5,232.333c0,0,7.334,3.167,15.5,3.5c8.009,0.326,16.334-1.833,16.334-1.833"/>
				</g>
			</g>
		</g>

		<g id="inverted">
			<g id="bg">
				<rect fill="#036" x="533" y="36" width="491" height="336"/>
				<polygon fill="#94c11c" points="533,36 749,36 636,372 533,372"/>
				<polygon fill="#94c11c" stroke="#94c11c" stroke-width="6" stroke-linecap="round" stroke-linejoin="round" stroke-miterlimit="10" points="683.108,195.581 732.394,249.192 659.586,256.973"/>
			</g>
			<g id="audience" fill="#fff">
				<rect x="878.75" y="227.5" width="65" height="94"/>
				<rect x="751" y="71.25" width="65" height="94"/>
				<rect x="916" y="89.25" width="65" height="94"/>
				<g stroke="#036" stroke-width="2" stroke-miterlimit="10">
					<circle cx="756.75" cy="134" r="12"/>
					<path d="M779.75,166.151h-46v-12.662 c0-4.118,3.369-7.488,7.488-7.488h31.023c4.117,0,7.488,3.37,7.488,7.488V166.151z"/>
					<circle cx="756.75" cy="163.75" r="12"/>
					<path d="M779.75,195.901h-46v-12.662 c0-4.118,3.369-7.488,7.488-7.488h31.023c4.117,0,7.488,3.37,7.488,7.488V195.901z"/>
					<circle cx="829.75" cy="147.167" r="12"/>
					<path d="M852.75,179.318h-46v-12.662 c0-4.118,3.369-7.488,7.488-7.488h31.023c4.117,0,7.488,3.37,7.488,7.488V179.318z"/>
					<circle cx="818.666" cy="194.001" r="12"/>
					<path d="M841.666,226.152h-46V213.49 c0-4.118,3.369-7.488,7.488-7.488h31.023c4.117,0,7.488,3.37,7.488,7.488V226.152z"/>
					<circle cx="923" cy="154.75" r="12"/>
					<path d="M946,186.901h-46v-12.662 c0-4.118,3.369-7.488,7.488-7.488h31.023c4.117,0,7.488,3.37,7.488,7.488V186.901z"/>
					<circle cx="893.75" cy="168.5" r="12"/>
					<path d="M916.75,200.651h-46v-12.662 c0-4.118,3.369-7.488,7.488-7.488h31.023c4.117,0,7.488,3.37,7.488,7.488V200.651z"/>
					<circle cx="989.5" cy="176.5" r="12"/>
					<path d="M1012.5,208.651h-46v-12.662 c0-4.118,3.369-7.488,7.488-7.488h31.023c4.117,0,7.488,3.37,7.488,7.488V208.651z"/>
					<circle cx="970" cy="194" r="12"/>
					<path d="M993,226.151h-46v-12.662 c0-4.118,3.369-7.488,7.488-7.488h31.023c4.117,0,7.488,3.37,7.488,7.488V226.151z"/>
					<circle cx="945" cy="290.125" r="12"/>
					<path d="M968,322.276h-46v-12.662 c0-4.118,3.369-7.488,7.488-7.488h31.023c4.117,0,7.488,3.37,7.488,7.488V322.276z"/>
					<circle cx="874" cy="299.5" r="12"/>
					<path d="M897,331.651h-46v-12.662 c0-4.118,3.369-7.488,7.488-7.488h31.023c4.117,0,7.488,3.37,7.488,7.488V331.651z"/>
					<circle cx="911" cy="336.125" r="12"/>
					<path d="M934,368.276h-46v-12.662 c0-4.118,3.369-7.488,7.488-7.488h31.023c4.117,0,7.488,3.37,7.488,7.488V368.276z"/>
					<circle cx="989.5" cy="324.5" r="12"/>
					<path d="M1012.5,356.651h-46v-12.662 c0-4.118,3.369-7.488,7.488-7.488h31.023c4.117,0,7.488,3.37,7.488,7.488V356.651z"/>
				</g>
			</g>
			<g id="teacher" fill="#94c11c">
				<circle cx="768" cy="272.5" r="8.5"/>
				<path d="M780,282.5h-23.5c-2.75,0-5,2.25-5,5l-0.001,34.5c0,1.657,1.343,3,3,3s3-1.343,3-3l0.001-28.501 c0-0.276,0.224-0.5,0.5-0.5s0.5,0.224,0.5,0.5v57.251c0,2.485,2.014,4.5,4.5,4.5c2.485,0,4.5-2.015,4.5-4.5V321 c0-0.414,0.336-0.75,0.75-0.75S769,320.586,769,321v29.75c0,2.485,2.014,4.5,4.5,4.5c2.485,0,4.5-2.015,4.5-4.5v-57.251 c0-0.276,0.224-0.5,0.5-0.5s0.5,0.224,0.5,0.5V322c0,1.657,1.343,3,3,3s3-1.343,3-3v-34.5C785,284.75,782.75,282.5,780,282.5z"/>
			</g>
			<g id="learner">
				<g fill="#036">
					<rect x="583.563" y="177.5" width="35" height="3"/>
					<polygon points="579.763,150.481 587.693,178.94 583.696,180.048 575.769,151.59"/>
				</g>
				<g fill="#fff">
					<circle cx="631.001" cy="141.5" r="13.5"/>
					<rect x="574" y="187.5" width="9" height="55.25"/>
					<rect x="621.5" y="187.5" width="9" height="55.25"/>
					<rect x="639.625" y="217.375" width="6.25" height="25.375"/>
					<rect x="644.5" y="229.063" width="28" height="3.875"/>
					<rect x="638" y="210.813" width="33.25" height="6.875"/>
					<rect x="570" y="180.5" width="64.5" height="7"/>
					<rect x="577.25" y="186.5" width="50" height="9.501"/>
					<path d="M638.5,156c0,0,11-3.666,15.833,6.334s10.833,38.666,2.333,44.333s-18.666-3-18.666-3s0.667-9.833-1.5-22.5 S631.5,161,638.5,156z"/>
					<path d="M675.968,202.169c0-13.792,1.129-27.324,3.267-40.522l-6.938-1.166 c-2.192,13.659-3.329,27.586-3.329,41.688c0,13.722,1.075,27.277,3.152,40.581h7.124 C677.1,229.533,675.968,215.982,675.968,202.169z"/>
				</g>
				<g fill="none" stroke="#fff" stroke-width="14" stroke-linecap="round" stroke-linejoin="round" stroke-miterlimit="10">
					<polyline points=" 613.25,236.75 621.25,205.5 651.25,201.5"/>
					<path stroke-width="10" d="M614.333,176.5c0,0,6.501,0.091,14.5-1.583c7.167-1.5,14.501-4.417,14.501-4.417"/>
				</g>
				<g id="screen">
					<g fill="#fff">
						<rect x="539.25" y="93.25" width="73" height="54"/>
						<polygon stroke="#fff" stroke-width="2" stroke-linecap="round" stroke-linejoin="round" stroke-miterlimit="10" points="583.5,153.25 579.75,146.375 583.5,139.5 587.25,146.375"/>
					</g>
					<rect fill="#eee" x="542.75" y="96.75" width="66" height="41"/>
					<g fill="#94c11c">
						<circle cx="555.761" cy="118.923" r="5.219"/>
						<path d="M567.201,132.948c0.261,0.126,0.54,0.188,0.815,0.188c0.453,0,0.9-0.165,1.249-0.481l6.711-6.058 c0.765-0.689,0.824-1.868,0.134-2.632c-0.688-0.765-1.868-0.825-2.633-0.135l-5.778,5.215l-7.394-3.597 c-0.26-0.125-0.535-0.18-0.804-0.182l-0.013-0.006h-9.286c-0.009,0-0.017,0-0.023,0h-0.012l-0.001,0.002 c-0.115,0-0.233,0.009-0.35,0.032c-0.212,0.041-5.173,1.088-6.428,9.283c-0.153,0.994-0.262,2.078-0.341,3.172h3.734 c0.071-0.909,0.164-1.797,0.289-2.608c0.273-1.784,0.735-3.055,1.233-3.967v6.575h12.674v-7.828L567.201,132.948z"/>
						<rect x="576.568" y="120.903" transform="matrix(-0.7073 -0.7069 0.7069 -0.7073 898.9831 617.1702)" width="1.399" height="3.124"/>
					</g>
				</g>
			</g>
		</g>
	</g>


	<g id="text" fill="#036">
		<text transform="matrix(1 0 0 1 108.75 23.5)">Konventionelle Lehre</text>
		<text transform="matrix(1 0 0 1 654.25 23.5)">Inverted Classroom</text>
	</g>


</svg>